<svg width="24" height="24" viewBox="0 0 24 24" fill="none" xmlns="http://www.w3.org/2000/svg">
<path d="M20.9801 3.02001C20.1101 2.15001 18.8801 1.81001 17.6901 2.11001L7.8901 4.56001C6.2401 4.97001 4.9701 6.25001 4.5601 7.89001L2.1101 17.7C1.8101 18.89 2.1501 20.12 3.0201 20.99C3.6801 21.64 4.5501 22 5.4501 22C5.7301 22 6.0201 21.97 6.3001 21.89L16.1101 19.44C17.7501 19.03 19.0301 17.76 19.4401 16.11L21.8901 6.30001C22.1901 5.11001 21.8501 3.88001 20.9801 3.02001ZM12.0001 15.88C9.8601 15.88 8.1201 14.14 8.1201 12C8.1201 9.86001 9.8601 8.12001 12.0001 8.12001C14.1401 8.12001 15.8801 9.86001 15.8801 12C15.8801 14.14 14.1401 15.88 12.0001 15.88Z" fill="#FF2222"/>
</svg>
