<svg width="109" height="46" viewBox="0 0 109 46" fill="none" xmlns="http://www.w3.org/2000/svg">
<path d="M54.8349 5.22228C55.5744 5.25686 56.2807 5.5393 56.8401 6.02412C57.6025 6.74578 57.8023 7.94912 57.4415 8.91192C56.0389 11.7991 52.7031 13.7276 50.4237 14.3656C49.0599 14.6863 47.336 14.6863 46.0925 14.2052C45.4906 14.5661 44.9827 15.7322 44.2477 15.2476C43.1838 14.4167 44.1048 13.1164 43.4906 12.1937C43.3639 12.0037 43.045 11.9897 42.8846 11.6789C42.0421 9.83404 43.085 8.0694 44.2477 6.66618C46.1861 4.50353 51.7473 2.09393 54.8349 5.22228ZM48.3784 6.6656C47.2953 6.86606 46.0722 7.33729 45.411 8.10949C44.7492 8.88112 44.3285 9.63358 44.7294 10.4354C46.1332 9.39302 46.8148 7.94913 48.379 7.0671C48.3784 6.90615 48.6189 6.78587 48.3784 6.6656ZM54.9157 7.0671C52.1482 6.82597 50.0628 8.91192 48.0977 10.9165C47.9775 11.2373 47.2558 11.5981 47.8171 11.9589C50.4643 12.1995 52.9907 11.4383 54.9157 9.67309C55.4776 9.15189 55.8773 8.47032 55.5979 7.74808C55.4776 7.46802 55.1946 7.18738 54.9157 7.0671ZM78.896 19.0175C80.1796 22.1458 81.262 27.0777 78.896 30.0858C78.2546 30.8075 77.132 31.4728 76.4103 30.9277C73.7631 28.8029 72.6411 25.7547 70.9967 23.0273C70.7562 22.907 70.7562 23.2283 70.6359 23.3486C70.0345 26.1155 71.1571 29.725 69.2728 31.8899C68.5511 32.0102 67.8759 31.6389 67.6284 30.9277C66.7057 28.0806 67.6673 25.1126 67.9079 22.2655C68.4698 20.8216 68.7103 19.1377 69.9537 18.0547C71.9589 18.8565 72.9211 21.1028 74.0832 22.7472C74.9263 23.9901 75.6073 25.3939 76.5695 26.5164C77.4115 26.1556 76.9972 25.0551 76.971 24.391C76.6491 21.7844 75.9275 19.3783 75.2453 16.892C75.2064 16.2505 74.8456 15.1675 75.526 14.7665C77.333 15.569 78.0936 17.4533 78.896 19.0175ZM66.7853 18.0547C66.7853 18.6566 66.3042 19.4085 65.9021 19.4986C62.0527 20.0999 57.7617 19.7391 54.1528 20.9419C54.0325 21.3829 54.5537 21.4631 54.8344 21.5834C57.9215 22.0645 61.1707 22.1847 64.1787 22.9471C65.7691 23.3509 66.3449 25.2335 66.4651 26.7971C66.5389 28.0301 66.0648 29.5239 64.8609 30.3664C61.8941 32.2514 57.3625 32.1706 54.3538 30.4472C53.204 29.8023 52.1081 28.7633 52.0279 27.4798C52.0349 26.4607 52.4695 25.6582 53.1912 25.2742C56.079 24.1109 59.6477 24.7535 62.1346 26.2364C62.2938 27.0388 61.4257 26.9952 61.0103 27.2793C58.2428 28.8836 56.158 25.4758 53.5915 26.7175C53.2307 26.958 52.9698 27.6291 53.3911 27.8406C56.5589 29.2444 60.0882 28.2416 63.2159 27.3595C63.5768 27.2393 64.0184 26.8784 64.0579 26.5176C63.9376 25.2341 62.4943 24.954 61.5716 24.5932C58.8447 23.9116 55.8372 23.9116 52.9094 23.631C52.3481 23.5107 51.6328 23.1196 51.466 22.6688C51.1453 21.7065 51.1453 20.3829 51.867 19.5811C55.5961 16.2924 61.2503 16.5736 65.9823 17.4556C66.3036 17.5736 66.6645 17.6938 66.7853 18.0547ZM49.261 19.5788C49.6218 23.4282 49.8223 26.9981 49.7421 31.048C49.6619 31.5686 49.0605 31.6895 48.6596 31.8899C48.0181 32.0102 47.189 31.8737 46.9351 31.5291C46.0129 30.0445 46.3337 28.0405 46.2535 26.2358C46.3738 23.3892 46.3337 20.301 47.1361 17.6538C47.2895 17.2691 47.7375 16.9321 48.0983 17.1721C49.0605 17.6538 49.2209 18.6165 49.261 19.5788ZM93.8155 19.0175C94.0084 19.3417 94.2101 19.8425 93.8155 20.0599C92.0108 20.8617 89.5652 20.5009 87.4792 20.7414C86.9179 21.2225 86.4763 22.0244 86.6762 22.7466C86.8778 22.8669 87.0574 23.0499 87.2788 23.0267C88.5611 23.1074 90.4867 22.4253 91.3298 23.6281C91.5355 23.986 91.3019 25.3224 90.7284 25.3526C89.1637 25.5542 86.5908 25.1562 85.8349 25.5542C84.8727 26.1957 84.9523 27.4386 84.5914 28.442C85.2736 28.883 85.9877 28.4316 86.7965 28.3212C88.2817 28.0806 89.926 27.6396 91.4088 27.9603C91.6895 28.4815 92.091 29.0434 91.8098 29.6849C89.2816 31.6901 86.0208 33.7452 82.5467 32.2914C81.2429 31.7069 80.6618 29.725 81.1034 28.0417C81.3835 26.8383 82.6263 25.6757 81.8652 24.3921C81.7449 23.8303 82.0662 23.3497 82.5473 23.2295C83.8704 23.2295 83.5891 21.5851 84.2713 20.8228C83.5095 19.9808 81.5851 20.0209 81.7856 18.3365C82.7083 17.8554 83.8314 18.0157 84.8727 17.8554C87.2387 17.3737 89.8853 17.093 92.2932 17.3737C92.7726 17.4701 93.4146 18.4161 93.8155 19.0175ZM36.5483 9.87413C40.249 12.8991 45.0501 18.0553 44.4488 23.9901C43.7265 28.6826 38.7539 32.2113 34.5431 33.3344C30.4525 34.5372 25.3196 34.4169 21.1483 33.4547C20.8676 34.217 20.587 35.1386 19.705 35.4599C19.1437 35.6604 18.4214 35.5401 17.9804 35.1792C16.7376 34.016 17.7399 31.7703 15.9351 31.0492C12.4059 29.5652 8.59595 26.6373 6.7918 23.0284C6.55125 22.3068 6.83189 21.5851 7.27291 21.0238C10.0404 18.8182 13.529 17.9361 17.0182 17.254C17.2187 17.3342 17.1385 17.0535 17.2988 16.9733C17.4993 14.5672 17.5795 12.1205 18.3412 9.9549C18.515 9.65101 18.9426 9.55397 19.2238 9.75444C21.4295 11.4383 20.3865 14.6073 21.3493 16.8926C25.5601 17.093 29.771 17.2935 33.0992 19.6601C34.2224 20.5822 34.496 22.3434 34.1416 23.3497C33.7877 24.3544 32.6181 25.0743 31.535 25.1533C30.8128 25.1533 29.4497 25.2236 29.5298 24.6728C29.61 24.1214 31.983 23.219 31.2544 22.4665C30.2068 21.3852 24.9652 20.742 21.7165 20.3411C21.3156 20.2609 20.9478 20.3812 20.9478 20.8222C20.8676 23.8698 20.6271 27.2381 21.1483 30.1666C21.1884 30.3676 21.4289 30.6082 21.63 30.6471C27.3643 31.5698 33.4199 31.048 37.9114 27.7599C39.9968 26.0766 40.6789 23.7088 40.3175 21.1028C38.5128 13.8444 30.9336 9.47263 24.7176 6.6656C18.6626 4.01893 11.9648 2.65522 4.78661 3.01663C3.6437 3.1003 1.83258 3.49483 1.81921 3.89924C1.80585 4.30364 3.87089 4.17639 3.62336 4.94163C3.37642 5.70629 1.27768 5.25249 0.655962 5.06191C0.0342433 4.87133 0.094672 3.97884 0.255041 3.41755C1.81921 0.650611 6.18403 0.426909 8.15551 0.329875C19.0629 0.0486488 29.6106 4.20255 36.5483 9.87413ZM16.8979 20.6217C14.1304 20.6618 11.2031 20.9425 8.63662 21.9047C8.11542 22.1051 7.47337 22.6664 7.87429 23.3486C8.91668 24.7518 10.4076 25.904 11.8045 26.7169C13.2013 27.5286 15.0531 28.5617 16.7376 28.8029C17.1385 26.1957 17.1385 23.6292 17.0984 20.9425C16.9374 20.8623 17.0978 20.7019 16.8979 20.6217ZM99.7898 16.9722C99.6696 20.4608 96.4204 22.6269 96.4204 26.1155C96.5406 26.2358 96.622 26.3962 96.7812 26.3171C99.3889 23.4694 101.955 19.419 105.765 18.2162C106.769 18.136 107.676 19.0082 108.051 19.6601C109.375 22.3068 109.055 26.0365 107.21 28.4426C105.306 30.8046 101.995 33.1746 98.2274 32.7731C96.6638 36.6231 95.579 40.6736 94.9776 44.8845C94.6569 45.7264 93.8957 44.9646 93.4146 44.8043C90.1666 42.2378 92.8336 35.4436 93.0538 34.5767C93.274 33.7121 94.1432 31.6726 94.7789 29.9649C93.2548 27.2387 94.217 23.9494 95.4599 21.423C96.4221 19.7385 97.7469 18.0541 99.3105 16.7711C99.5092 16.7717 99.6696 16.8118 99.7898 16.9722ZM106.248 21.3033C105.766 21.2231 105.565 21.8652 105.165 21.9854C103.321 24.0708 101.475 26.1562 100.553 28.6425C101.797 28.8029 102.839 28.001 103.922 27.56C105.766 26.3967 106.93 24.4729 106.809 22.2667C106.729 21.9047 106.408 21.624 106.248 21.3033Z" fill="#171725"/>
</svg>
