<svg width="25" height="16" viewBox="0 0 25 16" fill="none" xmlns="http://www.w3.org/2000/svg">
<path d="M24 8.69409C24.5523 8.69409 25 8.24638 25 7.69409C25 7.14181 24.5523 6.69409 24 6.69409V8.69409ZM0.292893 6.98699C-0.0976311 7.37751 -0.0976311 8.01067 0.292893 8.4012L6.65685 14.7652C7.04738 15.1557 7.68054 15.1557 8.07107 14.7652C8.46159 14.3746 8.46159 13.7415 8.07107 13.3509L2.41421 7.69409L8.07107 2.03724C8.46159 1.64671 8.46159 1.01355 8.07107 0.623024C7.68054 0.2325 7.04738 0.2325 6.65685 0.623024L0.292893 6.98699ZM24 6.69409L1 6.69409V8.69409L24 8.69409V6.69409Z" fill="white"/>
</svg>
