<svg width="25" height="24" viewBox="0 0 25 24" fill="none" xmlns="http://www.w3.org/2000/svg">
<path d="M10.2049 13.2399C10.1295 13.2399 8.54867 13.2404 7.81955 13.2397C7.44419 13.2394 7.31027 13.1045 7.31027 12.7268C7.30979 11.7565 7.30955 10.7861 7.31027 9.81581C7.31051 9.44285 7.45211 9.30053 7.82267 9.30029C8.55179 9.29981 10.124 9.30005 10.2049 9.30005C10.2049 9.23357 10.2047 7.83269 10.2049 7.18757C10.2054 6.23381 10.3755 5.32085 10.8601 4.48493C11.3562 3.62933 12.0781 3.04325 13.0033 2.70437C13.5959 2.48717 14.211 2.40053 14.8398 2.40005C15.6265 2.39957 16.4132 2.40029 17.2002 2.40173C17.5383 2.40221 17.6883 2.55173 17.6891 2.89229C17.6905 3.80501 17.6905 4.71773 17.6891 5.63021C17.6886 5.97437 17.5448 6.11261 17.199 6.11645C16.5541 6.12341 15.9087 6.11909 15.2646 6.14501C14.6139 6.14501 14.2717 6.46277 14.2717 7.13621C14.2561 7.84853 14.2652 8.56157 14.2652 9.29981C14.3262 9.29981 16.1778 9.29957 17.0432 9.29981C17.4363 9.29981 17.5707 9.43493 17.5707 9.83021C17.5707 10.7953 17.5705 11.7605 17.5698 12.7256C17.5695 13.1151 17.4433 13.2394 17.0478 13.2397C16.1823 13.2401 14.3379 13.2399 14.2573 13.2399V21.0507C14.2573 21.4671 14.1263 21.5998 13.7154 21.5998C12.7136 21.5998 11.7116 21.6001 10.7099 21.5998C10.3467 21.5998 10.2051 21.4587 10.2051 21.0956C10.2049 18.5518 10.2049 13.3292 10.2049 13.2399Z" fill="#3D6AD6"/>
</svg>
