<svg width="24" height="24" viewBox="0 0 24 24" fill="none" xmlns="http://www.w3.org/2000/svg">
<g clip-path="url(#clip0_546_792)">
<path d="M23.8071 10.141C23.9137 10.141 24.0002 10.2275 24.0002 10.3342V12.3623C24.0002 13.1214 23.9297 13.8636 23.7945 14.5836C22.7484 20.1762 17.8214 24.4027 11.9156 24.362C5.28895 24.3163 -0.0143974 18.962 0.00027451 12.3353C0.0148526 5.7204 5.38195 0.362305 12.0002 0.362305C15.2427 0.362305 18.1847 1.64865 20.3446 3.73815C20.4226 3.81357 20.4247 3.93788 20.3479 4.01457L17.4786 6.88384C17.4048 6.95771 17.2854 6.95963 17.2097 6.88759C15.8541 5.59716 14.0198 4.80493 12.0002 4.80493C7.82971 4.80493 4.47135 8.13943 4.44304 12.3099C4.41459 16.5076 7.80909 19.9196 12.0002 19.9196C15.4008 19.9196 18.2769 17.6732 19.2254 14.5836H12.1934C12.0867 14.5836 12.0002 14.4971 12.0002 14.3904V10.3341C12.0002 10.2274 12.0867 10.1409 12.1934 10.1409H23.8071V10.141Z" fill="#2196F3"/>
<path d="M23.8066 10.1411H22.3579C22.4646 10.1411 22.5511 10.2276 22.5511 10.3343V12.3624C22.5511 13.1215 22.4806 13.8637 22.3454 14.5837C21.3473 19.9191 16.8171 24.0111 11.2747 24.3408C11.4867 24.3533 11.7002 24.3606 11.9152 24.3621C17.8209 24.4028 22.7479 20.1763 23.794 14.5837C23.9293 13.8637 23.9998 13.1215 23.9998 12.3624V10.3342C23.9998 10.2276 23.9133 10.1411 23.8066 10.1411Z" fill="#1E88E5"/>
<path d="M5.13614 9.1974L1.4917 6.56415C3.53629 2.86613 7.47623 0.362305 12.0005 0.362305C15.243 0.362305 18.185 1.64865 20.3449 3.73815C20.4229 3.81357 20.4249 3.93788 20.3482 4.01457L17.4789 6.88384C17.4052 6.95757 17.2859 6.95987 17.2103 6.88796C15.8547 5.5973 14.0203 4.80498 12.0005 4.80498C8.95682 4.80498 6.33323 6.60423 5.13614 9.1974Z" fill="#F44336"/>
<path d="M4.08325 8.43719L5.13536 9.19736C6.22802 6.83045 8.50933 5.12579 11.2135 4.84618C11.2339 4.84398 11.2534 4.84131 11.2742 4.83934C11.0362 4.81674 10.795 4.80493 10.5511 4.80493C7.80152 4.80493 5.40527 6.25445 4.08325 8.43719Z" fill="#E53935"/>
<path d="M18.8958 3.73815C18.9738 3.81357 18.9758 3.93788 18.8991 4.01462L16.5702 6.34351C16.7933 6.5132 17.0069 6.6947 17.2096 6.88763C17.2852 6.95968 17.4046 6.95776 17.4785 6.88388L20.3478 4.01462C20.4245 3.93788 20.4224 3.81362 20.3445 3.73815C18.1845 1.64865 15.2426 0.362305 12.0001 0.362305C11.7568 0.362305 11.5154 0.370414 11.2756 0.384711C14.2306 0.560727 16.8979 1.8054 18.8958 3.73815Z" fill="#E53935"/>
<path d="M20.8022 20.5174C18.6108 22.8822 15.4778 24.3623 11.9995 24.3623C7.30138 24.3623 3.23394 21.6624 1.26416 17.7292L4.98486 15.1794C6.10138 17.9576 8.82154 19.9196 11.9995 19.9196C13.9938 19.9196 15.8076 19.1469 17.1578 17.8846L20.8022 20.5174Z" fill="#4CAF50"/>
<path d="M4.98534 15.1794L3.88818 15.9313C5.16248 18.3052 7.66837 19.9195 10.5512 19.9195C10.795 19.9195 11.036 19.9076 11.2739 19.885C8.41223 19.6122 6.01575 17.7435 4.98534 15.1794Z" fill="#43A047"/>
<path d="M12.0001 24.3622C15.4784 24.3622 18.6115 22.8822 20.8029 20.5174L19.9102 19.8726C17.8526 22.4333 14.7659 24.1321 11.2776 24.3404C11.5167 24.3547 11.7575 24.3622 12.0001 24.3622Z" fill="#43A047"/>
<path d="M4.44267 12.3624C4.44267 13.3581 4.63533 14.3089 4.98544 15.1796L1.26469 17.7293C0.455391 16.1145 0 14.2916 0 12.3624C0 10.2594 0.540844 8.28283 1.49119 6.56421L5.13562 9.19746C4.69088 10.1598 4.44267 11.2324 4.44267 12.3624Z" fill="#FFC107"/>
<path d="M3.88846 15.9314L4.98562 15.1796C4.63551 14.3089 4.44285 13.3581 4.44285 12.3623C4.44285 11.2324 4.69105 10.1598 5.1358 9.19743L4.08369 8.43726C3.40049 9.5653 3.00398 10.889 2.99432 12.3099C2.98541 13.6203 3.31012 14.8541 3.88846 15.9314Z" fill="#FFB300"/>
</g>
<defs>
<clipPath id="clip0_546_792">
<rect width="24" height="24" fill="white" transform="translate(0 0.362305)"/>
</clipPath>
</defs>
</svg>
