<svg width="121" height="48" viewBox="0 0 121 48" fill="none" xmlns="http://www.w3.org/2000/svg">
<g clip-path="url(#clip0_1_4889)">
<path d="M0.5 0H120.5V48H0.5V0Z" fill="#F0141E"/>
<path d="M102.049 11.1885V3.83779H81.4794L78.093 28.3855L74.7474 3.83779H67.3295L68.1584 10.3927C67.3033 8.71267 64.2678 3.83779 57.5838 3.83779C57.5394 3.83491 50.157 3.83779 50.157 3.83779L50.1263 39.618L44.7208 3.83779L35.0046 3.83491L29.4116 40.907L29.4148 3.83779H20.1143L16.7627 24.6621L13.4977 3.83779H4.1958V44.1415H11.5213V24.7149L14.854 44.1415H18.7477L22.0333 24.7149V44.1415H36.1544L37.0084 37.9423H42.6935L43.5474 44.1415L57.4124 44.1504H57.4225V44.1415H57.4398V31.0605L59.1376 30.8148L62.6562 44.1504H69.8281L69.8252 44.1415H69.8456L65.2285 28.5151C67.5664 26.7921 70.209 22.4241 69.5058 18.2436V18.2421C69.5144 18.2964 73.8652 44.1684 73.8652 44.1684L82.3933 44.142L88.2203 7.61323V44.142H102.048V36.8942H95.4858V27.6525H102.048V20.2941H95.4858V11.1885H102.049ZM37.8712 31.5528L39.884 14.3203L41.9696 31.5528H37.8712ZM59.1611 23.5956C58.5985 23.8651 58.0129 24 57.4398 24.0014V11.039C57.4487 11.039 57.4621 11.0376 57.4765 11.0376C58.0477 11.0332 62.3252 11.2089 62.3252 17.4477C62.3252 20.7112 60.8708 22.7695 59.1611 23.5956ZM116.806 36.8875V44.1326H103.314V3.83203H110.58V36.8875H116.806Z" fill="#F9F9F9"/>
</g>
<defs>
<clipPath id="clip0_1_4889">
<rect width="120" height="48" fill="white" transform="translate(0.5)"/>
</clipPath>
</defs>
</svg>
