<svg width="112" height="56" viewBox="0 0 112 56" fill="none" xmlns="http://www.w3.org/2000/svg">
<path fill-rule="evenodd" clip-rule="evenodd" d="M4.94092 12.9993H25.8795V43.001H4.94092V12.9993ZM7.95887 39.9807H22.8511V16.0207H7.95887V39.9807Z" fill="#FFCD1A"/>
<path fill-rule="evenodd" clip-rule="evenodd" d="M39.7879 26.4598H38.4928C36.7915 24.0566 35.1041 21.6685 33.4191 18.9695H33.4069V26.4598H31.9752V16.0161H33.2715C34.9728 18.4024 36.6579 20.7737 38.3272 23.4587H38.3568V16.0161H39.7885V26.4598H39.7879ZM43.1911 22.3262C43.6066 20.9532 44.0249 19.6854 44.3985 18.0735H44.4288C44.8459 19.6854 45.2196 20.9538 45.6071 22.3262H43.1911ZM43.8756 16.0161L40.2673 26.4598H41.8187L42.7263 23.6092H45.8761L46.696 26.4598H48.6965L45.3683 16.0161H43.8756ZM50.381 26.4598V17.417H47.635V16.0161H54.9149V17.417H52.1712V26.4598H50.381ZM55.4953 16.0161H57.2733V26.4598H55.4953V16.0161ZM62.7933 25.1449C60.9264 25.1449 60.2704 23.0862 60.2704 21.0868C60.2704 19.163 61.0159 17.3275 62.7933 17.3275C64.5684 17.3275 65.3115 19.163 65.3115 21.0868C65.3115 23.0862 64.6567 25.1449 62.7933 25.1449ZM62.7933 26.6364C65.5224 26.6364 67.2226 24.2059 67.2226 21.0863C67.2226 18.163 65.3458 15.8359 62.7933 15.8359C60.2431 15.8359 58.3582 18.163 58.3582 21.0863C58.3587 24.2065 60.0618 26.6364 62.7933 26.6364ZM76.1289 26.4598H74.832C73.1295 24.0566 71.4433 21.6685 69.7594 18.9695H69.7449V26.4598H68.315V16.0161H69.6118C71.3108 18.4024 72.997 20.7737 74.6652 23.4587H74.696V16.0161H76.1294V26.4598H76.1289ZM79.5303 22.3262C79.9492 20.9532 80.3647 19.6854 80.74 18.0735H80.7697C81.1874 19.6854 81.5593 20.9538 81.9463 22.3262H79.5303ZM80.2183 16.0161L76.6082 26.4598H78.1608L79.0684 23.6092H82.2176L83.0381 26.4598H85.0363L81.7086 16.0161H80.2183ZM85.5563 16.0161H87.3349V25.0565H90.8688V26.4598H85.5563V16.0161ZM38.6874 35.1952V39.5054C37.7316 39.8802 36.7316 40.1469 35.72 40.1469C32.6457 40.1469 30.7068 37.7599 30.7068 34.6862C30.7068 31.8356 32.6457 29.3452 35.7787 29.3452C36.7468 29.3452 37.7171 29.7049 38.3144 30.1517L37.7322 31.3899C37.2558 31.0942 36.5079 30.8403 35.8229 30.8403C33.9147 30.8403 32.6155 32.3475 32.6155 34.7199C32.6155 37.1946 34.1082 38.6553 35.6451 38.6553C36.1204 38.6553 36.5254 38.5984 36.9002 38.4026V35.1952H38.6874ZM45.0906 30.9298H42.1034V33.7926H45.0272V35.1952H42.1034V38.5647H45.624V39.9691H40.312V29.5248H45.0906V30.9298ZM50.6099 38.6548C48.743 38.6548 48.0859 36.5979 48.0859 34.5973C48.0859 32.6746 48.8319 30.8397 50.6099 30.8397C52.3838 30.8397 53.1282 32.6746 53.1282 34.5973C53.1282 36.5979 52.4704 38.6548 50.6099 38.6548ZM50.6099 40.1469C53.3385 40.1469 55.0381 37.7152 55.0381 34.5967C55.0381 31.6735 53.1595 29.3447 50.6099 29.3447C48.0556 29.3447 46.1783 31.6735 46.1783 34.5967C46.1777 37.7158 47.8755 40.1469 50.6099 40.1469ZM63.63 35.1952V39.5054C62.6742 39.8802 61.6771 40.1469 60.6614 40.1469C57.5894 40.1469 55.6487 37.7599 55.6487 34.6862C55.6487 31.8356 57.5894 29.3452 60.7224 29.3452C61.6928 29.3452 62.6608 29.7049 63.2564 30.1517L62.6742 31.3899C62.1965 31.0942 61.4551 30.8403 60.7678 30.8403C58.8555 30.8403 57.5575 32.3475 57.5575 34.7199C57.5575 37.1946 59.0508 38.6553 60.5876 38.6553C61.0664 38.6553 61.4673 38.5984 61.8415 38.4026V35.1952H63.63ZM67.0651 30.9298H67.8536C68.9099 30.9298 69.5084 31.5387 69.5084 32.6142C69.5084 34.0151 68.6595 34.6409 67.8083 34.6856C67.6287 34.7036 67.2104 34.7188 67.0651 34.7315V30.9298ZM71.599 39.9691L69.4916 35.6444C70.6403 35.0343 71.3004 33.7926 71.3004 32.5393C71.3004 30.5085 70.0598 29.5248 68.0605 29.5248H65.2709V39.9691H67.0651V36.0308H67.8699L69.5526 39.9691H71.599ZM74.5519 35.8361C74.9685 34.4613 75.3863 33.1947 75.7605 31.5834H75.7901C76.2079 33.1947 76.5797 34.4613 76.9679 35.8361H74.5519ZM75.2369 29.5248L71.6258 39.9691H73.1771L74.0882 37.1185H77.2375L78.0533 39.9691H80.0561L76.7273 29.5248H75.2369ZM83.4117 29.5248H80.6221V39.9691H82.4129V36.0308H83.2164C85.3512 36.0308 86.6504 34.2998 86.6504 32.5393C86.6504 30.5079 85.411 29.5248 83.4117 29.5248ZM83.1607 34.6862C82.9747 34.7031 82.5378 34.717 82.4129 34.7292V30.9298H83.2164C84.2606 30.9298 84.8596 31.5387 84.8596 32.6142C84.8596 34.0151 84.0119 34.6415 83.1607 34.6862ZM94.9437 39.9691H93.1541V34.943H89.4365V39.9691H87.6661V29.5248H89.4365V33.5381H93.1541V29.5544H94.9437V39.9691ZM96.6578 29.5248H98.4369V39.9691H96.6578V29.5248ZM106.49 31.4207C106.056 31.1517 105.343 30.8397 104.654 30.8397C102.831 30.8397 101.508 32.3469 101.508 34.7193C101.508 37.194 102.968 38.6548 104.7 38.6548C105.334 38.6518 105.954 38.4706 106.49 38.1318L106.984 39.431C106.443 39.8035 105.491 40.1469 104.627 40.1469C101.553 40.1469 99.6124 37.7599 99.6124 34.6862C99.6124 31.8356 101.536 29.3452 104.654 29.3452C105.581 29.3452 106.443 29.7357 107.058 30.1517L106.49 31.4207Z" fill="#171725"/>
</svg>
