<svg width="96" height="96" viewBox="0 0 96 96" fill="none" xmlns="http://www.w3.org/2000/svg">
<path fill-rule="evenodd" clip-rule="evenodd" d="M2.82349 40.4482V46.7484H21.2524C23.3945 46.7484 26.1312 44.7677 26.1312 41.4911C26.1312 40.1733 26.6352 39.3137 25.0863 37.5706L22.7291 34.7776C21.3784 33.5175 22.8905 33.5175 24.025 33.5175H31.8059V46.7484H37.9766V33.5175H46.2933V27.8513H19.3624C16.0858 27.8513 14.4836 30.9974 14.5737 32.6355C14.6644 34.2735 14.9657 36.3344 17.6885 38.8102C20.1722 41.0678 16.4588 40.4482 16.0858 40.4482H2.82349ZM59.9381 27.8513H49.9833L44.4028 46.7489H50.6133L51.6209 44.1028H58.1731L59.1457 46.7489H65.2293L59.9381 27.8513ZM53.0074 39.5662L55.1495 32.6355L57.166 39.5662H53.0074ZM84.8874 40.4482C82.4933 40.4482 82.4933 39.5662 82.4933 39.5662C84.5447 39.5662 86.3635 36.5775 86.3635 33.5175C86.3635 30.4576 83.3753 27.8513 80.9802 27.8513H67.5875V46.7489H74.3927V40.4487C74.3927 40.4487 77.2903 43.8508 78.8023 45.2369C80.3149 46.6229 80.4404 46.7489 82.4928 46.7489H93.1752V40.4487C93.1762 40.4482 87.2814 40.4482 84.8874 40.4482ZM78.7127 36.0381H74.3937V32.6355H78.7127C80.6929 32.6355 81.0355 36.0381 78.7127 36.0381ZM2.82349 49.1425H9.78557L11.5496 55.4437L13.1877 49.1425H20.4964L22.3865 55.4437L24.277 49.1425H30.3252L24.7805 68.0446H19.2364L16.8069 59.0973L14.0697 68.0446H8.39953L2.82349 49.1425ZM44.6134 49.2516H34.6586L29.0786 68.1487H35.2887L36.2967 65.5031H42.8494L43.8221 68.1487H49.9061L44.6134 49.2516ZM37.6832 60.966L39.8253 54.0352L41.8414 60.966H37.6832ZM85.0129 54.8137C83.8798 54.8137 82.6442 54.9461 83.9954 56.2057L86.3531 58.9992C87.9015 60.7423 87.8766 61.469 87.8766 62.7878C87.8766 66.0639 84.6354 68.0446 82.4933 68.0446L67.6039 68.1447C65.5525 68.1447 65.427 68.0192 63.9144 66.6331C62.4029 65.2471 59.5043 61.8445 59.5043 61.8445V68.1447H52.7001V49.2476H66.0929C68.4869 49.2476 71.4762 51.8543 71.4762 54.9138C71.4762 57.9742 69.6573 60.9625 67.6049 60.9625C67.6049 60.9625 68.5074 61.8699 70.0194 61.8699C71.5319 61.8699 77.354 61.8759 77.354 61.8759C77.7266 61.8759 81.4394 62.4954 78.9562 60.2378C76.2334 57.7621 75.9321 55.7022 75.8415 54.0641C75.7508 52.4261 77.1673 49.143 80.4424 49.143H93.1772V54.8142H85.0129V54.8137ZM63.8238 57.4339H59.5038V54.0312H63.8238C65.8045 54.0312 66.1467 57.4339 63.8238 57.4339Z" fill="#171725"/>
</svg>
