<svg width="193" height="192" viewBox="0 0 193 192" fill="none" xmlns="http://www.w3.org/2000/svg">
<circle opacity="0.06" cx="96.5" cy="96" r="95.25" stroke="#171725" stroke-width="1.5"/>
<circle opacity="0.12" cx="96.4998" cy="96" r="70.3929" stroke="#171725" stroke-width="1.5"/>
<circle opacity="0.16" cx="96.5001" cy="96" r="45.5357" stroke="#171725" stroke-width="1.5"/>
<g clip-path="url(#clip0_1_8099)">
<path d="M144.109 68H49.8906C42.7827 68 37 73.7827 37 80.8906V132.453C37 139.561 42.7827 145.344 49.8906 145.344H144.109C151.217 145.344 157 139.561 157 132.453V80.8906C157 73.7827 151.217 68 144.109 68Z" fill="#B6BAF2"/>
<path d="M79.1875 101.984V85.5781C79.1875 83.6366 77.6134 82.0625 75.6719 82.0625H54.5781C52.6366 82.0625 51.0625 83.6366 51.0625 85.5781V101.984C51.0625 103.926 52.6366 105.5 54.5781 105.5H75.6719C77.6134 105.5 79.1875 103.926 79.1875 101.984Z" fill="#FFD422"/>
<path d="M140.594 85.5781C140.594 83.6366 139.02 82.0625 137.078 82.0625H106.141C104.199 82.0625 102.625 83.6366 102.625 85.5781C102.625 87.5197 104.199 89.0938 106.141 89.0938H137.078C139.02 89.0938 140.594 87.5197 140.594 85.5781Z" fill="#453D83"/>
<path d="M137.078 96.125H115.516C113.574 96.125 112 97.6991 112 99.6406C112 101.582 113.574 103.156 115.516 103.156H137.078C139.02 103.156 140.594 101.582 140.594 99.6406C140.594 97.6991 139.02 96.125 137.078 96.125Z" fill="#453D83"/>
<path d="M134.734 117.219H130.047C128.105 117.219 126.531 118.793 126.531 120.734C126.531 122.676 128.105 124.25 130.047 124.25H134.734C136.676 124.25 138.25 122.676 138.25 120.734C138.25 118.793 136.676 117.219 134.734 117.219Z" fill="#453D83"/>
<path d="M115.984 117.219H111.297C109.355 117.219 107.781 118.793 107.781 120.734C107.781 122.676 109.355 124.25 111.297 124.25H115.984C117.926 124.25 119.5 122.676 119.5 120.734C119.5 118.793 117.926 117.219 115.984 117.219Z" fill="#453D83"/>
<path d="M97.2344 117.219H92.5469C90.6053 117.219 89.0312 118.793 89.0312 120.734C89.0312 122.676 90.6053 124.25 92.5469 124.25H97.2344C99.1759 124.25 100.75 122.676 100.75 120.734C100.75 118.793 99.1759 117.219 97.2344 117.219Z" fill="#5F55AF"/>
<path d="M97.2344 117.219H97V124.25H97.2344C99.1759 124.25 100.75 122.676 100.75 120.734C100.75 118.793 99.1759 117.219 97.2344 117.219Z" fill="#453D83"/>
<path d="M78.4844 117.219H73.7969C71.8553 117.219 70.2812 118.793 70.2812 120.734C70.2812 122.676 71.8553 124.25 73.7969 124.25H78.4844C80.4259 124.25 82 122.676 82 120.734C82 118.793 80.4259 117.219 78.4844 117.219Z" fill="#5F55AF"/>
<path d="M66.2969 129.406C50.1426 129.406 37 142.549 37 158.703C37 174.857 50.1426 188 66.2969 188C82.4512 188 95.5938 174.857 95.5938 158.703C95.5938 142.549 82.4512 129.406 66.2969 129.406Z" fill="#00C566"/>
<path d="M66.2969 129.406V188C82.4512 188 95.5938 174.857 95.5938 158.703C95.5938 142.549 82.4512 129.406 66.2969 129.406Z" fill="#00C566"/>
<path d="M76.1154 149.186L62.1952 163.106L56.4781 157.389C55.1051 156.016 52.8793 156.016 51.5063 157.389C50.1333 158.762 50.1333 160.988 51.5063 162.361L59.7094 170.564C61.0824 171.937 63.3082 171.937 64.6812 170.564L81.0875 154.158C82.4604 152.785 82.4604 150.559 81.0875 149.186C79.7145 147.813 77.4884 147.813 76.1154 149.186Z" fill="#FFF5F5"/>
<path d="M81.0876 149.186C79.7146 147.813 77.4887 147.813 76.1158 149.186L66.2969 159.005V168.949L81.0876 154.158C82.4605 152.785 82.4605 150.559 81.0876 149.186Z" fill="#DFDEF5"/>
</g>
<defs>
<clipPath id="clip0_1_8099">
<rect width="120" height="120" fill="white" transform="translate(37 68)"/>
</clipPath>
</defs>
</svg>
